<svg width="561" height="952" viewBox="0 0 561 952" fill="none" xmlns="http://www.w3.org/2000/svg">
<path d="M103.095 497.544C215.975 648.367 249.243 752.067 280.595 951.048C309.164 749.312 347.54 647.512 458.595 497.544C565.095 374.547 603.095 212.051 498.595 100.048C368.595 -48.9523 148.488 -22.0088 47.5948 118.047C-35.4055 226.551 -5.40517 365.548 103.095 497.544Z" fill="#F2A41E"/>
<path d="M375.095 285.547C375.095 338.014 332.562 380.547 280.095 380.547C227.628 380.547 185.095 338.014 185.095 285.547C185.095 233.08 227.628 190.547 280.095 190.547C332.562 190.547 375.095 233.08 375.095 285.547Z" fill="#30312F"/>
</svg>
